<svg width="40" height="40" viewBox="0 0 40 40" fill="none" xmlns="http://www.w3.org/2000/svg">
<path d="M1.87467 15.352H38.1253V12.6853H1.87467V15.352ZM37.3333 14.56V15.7307H40V14.56H37.3333ZM33.0293 36.6853H6.97067V39.352H33.0293V36.6853ZM2.66667 15.7307V14.56H0V15.7307H2.66667ZM7.72267 37.1493C4.3976 30.499 2.66658 23.1659 2.66667 15.7307H0C0 23.5813 1.82667 31.3227 5.33867 38.344L7.72267 37.1493ZM6.97067 36.6853C7.29067 36.6853 7.58133 36.8667 7.72267 37.1493L5.33867 38.344C5.49048 38.6468 5.72351 38.9015 6.01171 39.0795C6.29991 39.2575 6.63193 39.3518 6.97067 39.352V36.6853ZM32.2773 37.1493C32.3472 37.0098 32.4546 36.8924 32.5874 36.8105C32.7202 36.7285 32.8733 36.6852 33.0293 36.6853V39.352C33.7227 39.352 34.352 38.9627 34.6613 38.344L32.2773 37.1493ZM37.3333 15.7307C37.3333 23.1653 35.6 30.4987 32.2773 37.1493L34.6613 38.344C38.1722 31.3229 40.0001 23.5807 40 15.7307H37.3333ZM38.1253 15.352C37.9153 15.352 37.7138 15.2686 37.5653 15.12C37.4168 14.9715 37.3333 14.7701 37.3333 14.56H40C40 14.0628 39.8025 13.586 39.4509 13.2344C39.0994 12.8828 38.6225 12.6853 38.1253 12.6853V15.352ZM1.87467 12.6853C1.37747 12.6853 0.900645 12.8828 0.549077 13.2344C0.197509 13.586 0 14.0628 0 14.56H2.66667C2.66667 14.7701 2.58322 14.9715 2.4347 15.12C2.28617 15.2686 2.08472 15.352 1.87467 15.352V12.6853ZM10.4773 14.704L18.4773 1.37067L16.1867 0L8.18667 13.3333L10.4773 14.704ZM21.5227 1.37067L29.5227 14.704L31.8107 13.3333L23.8107 0L21.5227 1.37067ZM13.3333 26.0187H26.6667V23.352H13.3333V26.0187Z" fill="#FF9F0E"/>
</svg>
