<svg width="21" height="27" viewBox="0 0 21 27" fill="none" xmlns="http://www.w3.org/2000/svg">
<path d="M6.05042 6.66667C6.05042 5.54151 6.49664 4.46243 7.29091 3.66682C8.08518 2.87121 9.16244 2.42424 10.2857 2.42424C11.409 2.42424 12.4862 2.87121 13.2805 3.66682C14.0748 4.46243 14.521 5.54151 14.521 6.66667C14.521 7.79183 14.0748 8.8709 13.2805 9.66651C12.4862 10.4621 11.409 10.9091 10.2857 10.9091C9.16244 10.9091 8.08518 10.4621 7.29091 9.66651C6.49664 8.8709 6.05042 7.79183 6.05042 6.66667ZM10.2857 0C8.52058 0 6.82773 0.702379 5.57959 1.95262C4.33145 3.20286 3.63025 4.89856 3.63025 6.66667C3.63025 8.43478 4.33145 10.1305 5.57959 11.3807C6.82773 12.631 8.52058 13.3333 10.2857 13.3333C12.0509 13.3333 13.7437 12.631 14.9918 11.3807C16.24 10.1305 16.9412 8.43478 16.9412 6.66667C16.9412 4.89856 16.24 3.20286 14.9918 1.95262C13.7437 0.702379 12.0509 0 10.2857 0ZM0 19.3939C0 18.4295 0.382472 17.5046 1.06328 16.8226C1.74408 16.1407 2.66745 15.7576 3.63025 15.7576H16.9412C17.904 15.7576 18.8273 16.1407 19.5082 16.8226C20.189 17.5046 20.5714 18.4295 20.5714 19.3939V19.6679C20.5691 19.7809 20.561 19.8938 20.5472 20.0061C20.523 20.2158 20.4783 20.5006 20.3899 20.8376C20.1574 21.7265 19.7461 22.5585 19.181 23.2824C17.7652 25.103 15.1018 26.6667 10.2857 26.6667C5.46958 26.6667 2.80739 25.103 1.39039 23.2824C0.824926 22.5586 0.413136 21.7266 0.180302 20.8376C0.0878737 20.481 0.0287287 20.1166 0.00363028 19.7491C0.0024604 19.722 0.0016535 19.695 0.00121 19.6679V19.64L0 19.6303V19.3939ZM2.42017 19.6097V19.6242C2.43694 19.8281 2.47135 20.03 2.52303 20.2279C2.63193 20.6497 2.85338 21.2194 3.29869 21.7927C4.1518 22.8885 6.02622 24.2424 10.2857 24.2424C14.5452 24.2424 16.4208 22.8885 17.2727 21.7939C17.6345 21.3301 17.8981 20.7972 18.0472 20.2279C18.0992 20.0301 18.1341 19.8281 18.1513 19.6242L18.1525 19.6097V19.3939C18.1525 19.0725 18.025 18.7642 17.798 18.5368C17.5711 18.3095 17.2633 18.1818 16.9424 18.1818H3.63025C3.30932 18.1818 3.00153 18.3095 2.77459 18.5368C2.54766 18.7642 2.42017 19.0725 2.42017 19.3939V19.6097Z" fill="#FF9F0E"/>
</svg>
