<svg width="22" height="27" viewBox="0 0 22 27" fill="none" xmlns="http://www.w3.org/2000/svg">
<path d="M1.13333 26.6667V13.8667L0.766666 13.5C0.522222 13.2556 0.333333 12.9667 0.2 12.6333C0.0666668 12.3 0 11.9556 0 11.6C0 11.2444 0.0666668 10.9058 0.2 10.584C0.333333 10.2613 0.522222 9.97778 0.766666 9.73333L5.13333 5.33333H10.4667L15.8 0L18.5333 2.73333C19.4222 3.62222 20.1111 4.62755 20.6 5.74933C21.0889 6.872 21.3333 8.06667 21.3333 9.33333C21.3333 10.6 21.0889 11.7947 20.6 12.9173C20.1111 14.0391 19.4222 15.0444 18.5333 15.9333L15.8 18.6667V26.6667H1.13333ZM3.8 24H13.1333V17.5667L16.6333 14.0667C17.2778 13.4222 17.7778 12.7 18.1333 11.9C18.4889 11.1 18.6667 10.2444 18.6667 9.33333C18.6667 8.44444 18.4831 7.6 18.116 6.8C17.7498 6 17.2556 5.27778 16.6333 4.63333L15.8 3.76667L11.5667 8H6.23333L5.46667 8.76667L7.7 11C8.32222 11.6222 8.80578 12.3387 9.15067 13.1493C9.49467 13.9609 9.66667 14.8111 9.66667 15.7C9.66667 16.5889 9.5 17.4391 9.16667 18.2507C8.83333 19.0613 8.34444 19.7889 7.7 20.4333L3.8 16.5333V24Z" fill="#FF9F0E"/>
</svg>
