<svg width="27" height="27" viewBox="0 0 27 27" fill="none" xmlns="http://www.w3.org/2000/svg">
<path d="M25.169 26.6667C21.7024 26.6667 18.4415 26.0111 15.3864 24.7C12.3304 23.3889 9.66371 21.5947 7.38638 19.3173C5.10816 17.0391 3.30816 14.3724 1.98638 11.3173C0.663714 8.26133 0.00238095 4.98889 0.00238095 1.5C-0.0198413 1.1 0.113492 0.749778 0.402381 0.449333C0.69127 0.149778 1.04683 0 1.46905 0H6.66905C7.06905 0 7.41349 0.149778 7.70238 0.449333C7.99127 0.749778 8.13571 1.11111 8.13571 1.53333C8.13571 2.51111 8.20238 3.43333 8.33571 4.3C8.46905 5.16667 8.68016 5.98889 8.96905 6.76667C9.08016 7.01111 9.10238 7.26089 9.03571 7.516C8.96905 7.772 8.83571 8.01111 8.63571 8.23333L5.30238 11.5667C6.25794 13.5222 7.61349 15.3778 9.36905 17.1333C11.1246 18.8889 13.0135 20.2889 15.0357 21.3333L18.369 18C18.569 17.8 18.8024 17.6667 19.069 17.6C19.3357 17.5333 19.6024 17.5556 19.869 17.6667C20.6913 17.9333 21.541 18.1387 22.4184 18.2827C23.2966 18.4276 24.2024 18.5 25.1357 18.5C25.5579 18.5 25.9193 18.6556 26.2197 18.9667C26.5193 19.2778 26.669 19.6556 26.669 20.1V25.2C26.669 25.6 26.5246 25.9444 26.2357 26.2333C25.9468 26.5222 25.5913 26.6667 25.169 26.6667ZM17.5024 22.6667C18.5024 23.0444 19.5468 23.3444 20.6357 23.5667C21.7246 23.7889 22.8468 23.9333 24.0024 24V21.1333C23.3135 21.0889 22.6082 21.0111 21.8864 20.9C21.1637 20.7889 20.4468 20.6222 19.7357 20.4L17.5024 22.6667ZM24.0024 13.3333C24.0024 10.3556 22.969 7.83333 20.9024 5.76667C18.8357 3.7 16.3135 2.66667 13.3357 2.66667V0C15.1802 0 16.9135 0.349778 18.5357 1.04933C20.1579 1.74978 21.569 2.7 22.769 3.9C23.969 5.1 24.9188 6.51111 25.6184 8.13333C26.3188 9.75556 26.669 11.4889 26.669 13.3333H24.0024ZM18.669 13.3333C18.669 11.8667 18.1468 10.6111 17.1024 9.56667C16.0579 8.52222 14.8024 8 13.3357 8V5.33333C15.5579 5.33333 17.4468 6.11111 19.0024 7.66667C20.5579 9.22222 21.3357 11.1111 21.3357 13.3333H18.669ZM4.00238 9.1L6.20238 6.86667C6.0246 6.22222 5.87438 5.54444 5.75171 4.83333C5.62994 4.12222 5.54682 3.4 5.50238 2.66667H2.70238C2.74683 3.73333 2.88016 4.8 3.10238 5.86667C3.3246 6.93333 3.6246 8.01111 4.00238 9.1Z" fill="#FF9F0E"/>
</svg>
